<svg width="24" height="24" viewBox="0 0 24 24" fill="none" xmlns="http://www.w3.org/2000/svg">
<path fill-rule="evenodd" clip-rule="evenodd" d="M11.5761 1.45064C11.8104 1.21632 12.1903 1.21632 12.4246 1.45064L16.9246 5.95064C17.1589 6.18495 17.1589 6.56485 16.9246 6.79917C16.6903 7.03348 16.3104 7.03348 16.0761 6.79917L12.6001 3.32323V13.1249C12.6001 13.4563 12.3315 13.7249 12.0001 13.7249C11.6688 13.7249 11.4001 13.4563 11.4001 13.1249V3.32363L7.92461 6.79917C7.69029 7.03348 7.31039 7.03348 7.07608 6.79917C6.84176 6.56485 6.84176 6.18495 7.07608 5.95064L11.5761 1.45064ZM4.12515 11.3499C3.8352 11.3499 3.60015 11.585 3.60015 11.8749V20.9999C3.60015 21.2899 3.8352 21.5249 4.12515 21.5249H19.8751C20.1651 21.5249 20.4001 21.2899 20.4001 20.9999V11.8749C20.4001 11.585 20.1651 11.3499 19.8751 11.3499H17.6251C17.2938 11.3499 17.0251 11.0813 17.0251 10.7499C17.0251 10.4185 17.2938 10.1499 17.6251 10.1499H19.8751C20.8278 10.1499 21.6001 10.9222 21.6001 11.8749V20.9999C21.6001 21.9526 20.8278 22.7249 19.8751 22.7249H4.12515C3.17246 22.7249 2.40015 21.9526 2.40015 20.9999V11.8749C2.40015 10.9222 3.17246 10.1499 4.12515 10.1499H6.37515C6.70652 10.1499 6.97515 10.4185 6.97515 10.7499C6.97515 11.0813 6.70652 11.3499 6.37515 11.3499H4.12515Z" fill="#101010"/>
</svg>
